<?xml version="1.0" encoding="UTF-8" standalone="no"?>
<svg
   data-v-7c460e88=""
   width="45"
   height="45"
   viewBox="0 0 572 573"
   fill="none"
   version="1.1"
   id="svg7"
   sodipodi:docname="merlin_white.svg"
   inkscape:version="1.3.2 (091e20e, 2023-11-25)"
   inkscape:export-filename="../../../Downloads/merlin_white.png"
   inkscape:export-xdpi="426.66666"
   inkscape:export-ydpi="426.66666"
   xmlns:inkscape="http://www.inkscape.org/namespaces/inkscape"
   xmlns:sodipodi="http://sodipodi.sourceforge.net/DTD/sodipodi-0.dtd"
   xmlns="http://www.w3.org/2000/svg"
   xmlns:svg="http://www.w3.org/2000/svg">
  <sodipodi:namedview
     id="namedview7"
     pagecolor="#ffffff"
     bordercolor="#666666"
     borderopacity="1.0"
     inkscape:showpageshadow="2"
     inkscape:pageopacity="0.0"
     inkscape:pagecheckerboard="0"
     inkscape:deskcolor="#d1d1d1"
     inkscape:zoom="8.5183271"
     inkscape:cx="21.600485"
     inkscape:cy="25.944061"
     inkscape:window-width="1472"
     inkscape:window-height="449"
     inkscape:window-x="50"
     inkscape:window-y="100"
     inkscape:window-maximized="0"
     inkscape:current-layer="svg7"
     inkscape:export-bgcolor="#ffffffff" />
  <rect
     width="572"
     height="573"
     fill="#000000"
     id="rect1"
     style="fill:#ffffff;fill-opacity:1" />
  <g
     filter="url(#filter0_f_244_15)"
     id="g6"
     style="fill:#000000;stroke:#000000;stroke-opacity:1">
    <path
       d="M482 40H330.5L288.5 193.5L377.5 90H532L482 40Z"
       fill="#ffffff"
       id="path1"
       style="fill:#000000;stroke:#000000;stroke-opacity:1" />
    <path
       d="M90.5 40H241.5L283 193.5L194.5 90H40L90.5 40Z"
       fill="#ffffff"
       id="path2"
       style="fill:#000000;stroke:#000000;stroke-opacity:1" />
    <path
       d="M132.5 113.5H59L99 175.5L73 384.5L179 431L224 384.5H132.5V113.5Z"
       fill="#ffffff"
       id="path3"
       style="fill:#000000;stroke:#000000;stroke-opacity:1" />
    <path
       d="M441.5 113.5H510L472.5 175.5L497.5 384.5L394 431L347.5 384.5H441.5V113.5Z"
       fill="#ffffff"
       id="path4"
       style="fill:#000000;stroke:#000000;stroke-opacity:1" />
    <path
       d="M194.5 278.5V202L285.5 304L377.5 202V278.5L285.5 378L194.5 278.5Z"
       fill="#ffffff"
       id="path5"
       style="fill:#000000;stroke:#000000;stroke-opacity:1" />
    <path
       d="M480.964 42.5L525.964 87.5H377.5H376.353L375.604 88.37L293.84 183.455L332.408 42.5H480.964ZM196.4 88.3753L195.652 87.5H194.5H46.0783L91.5283 42.5H239.586L277.692 183.445L196.4 88.3753ZM63.588 116H130V384.5V387H132.5H218.102L178.412 428.012L75.7109 382.959L101.481 175.809L101.593 174.908L101.101 174.145L63.588 116ZM441.5 387H444V384.5V116H505.566L470.361 174.206L469.915 174.942L470.018 175.797L494.799 382.973L394.548 428.013L353.536 387H441.5ZM375 277.521L285.51 374.307L197 277.529V208.557L283.635 305.664L285.49 307.744L287.356 305.674L375 208.504V277.521Z"
       stroke="white"
       stroke-width="5"
       id="path6"
       style="fill:#000000;stroke:#000000;stroke-opacity:1" />
  </g>
  <g
     clip-path="url(#clip0_244_15)"
     id="g7"
     style="fill:#000000">
    <rect
       x="83.5"
       y="463"
       width="405"
       height="70"
       rx="5"
       fill="#ffffff"
       id="rect6"
       style="fill:#000000" />
    <path
       d="M169.136 480.091H178.238L187.852 503.545H188.261L197.874 480.091H206.977V515H199.817V492.278H199.528L190.494 514.83H185.619L176.585 492.193H176.295V515H169.136V480.091ZM225.058 515V480.091H248.58V486.176H232.438V494.494H247.37V500.58H232.438V508.915H248.648V515H225.058ZM266.448 515V480.091H280.221C282.857 480.091 285.107 480.562 286.971 481.506C288.846 482.437 290.272 483.761 291.249 485.477C292.238 487.182 292.732 489.187 292.732 491.494C292.732 493.812 292.232 495.807 291.232 497.477C290.232 499.136 288.783 500.409 286.886 501.295C284.999 502.182 282.715 502.625 280.033 502.625H270.812V496.693H278.84C280.249 496.693 281.42 496.5 282.352 496.114C283.283 495.727 283.977 495.148 284.431 494.375C284.897 493.602 285.13 492.642 285.13 491.494C285.13 490.335 284.897 489.358 284.431 488.562C283.977 487.767 283.278 487.165 282.335 486.756C281.403 486.335 280.227 486.125 278.806 486.125H273.829V515H266.448ZM285.3 499.114L293.977 515H285.829L277.34 499.114H285.3ZM309.948 515V480.091H317.329V508.915H332.295V515H309.948ZM356.563 480.091V515H349.183V480.091H356.563ZM403.835 480.091V515H397.46L382.272 493.028H382.016V515H374.636V480.091H381.113L396.181 502.045H396.488V480.091H403.835Z"
       fill="#000000"
       id="path7"
       style="fill:#ffffff" />
  </g>
  <defs
     id="defs7">
    <filter
       id="filter0_f_244_15"
       x="39.5"
       y="39.5"
       width="493"
       height="392"
       filterUnits="userSpaceOnUse"
       color-interpolation-filters="sRGB">
      <feFlood
         flood-opacity="0"
         result="BackgroundImageFix"
         id="feFlood7" />
      <feBlend
         mode="normal"
         in="SourceGraphic"
         in2="BackgroundImageFix"
         result="shape"
         id="feBlend7" />
      <feGaussianBlur
         stdDeviation="0.25"
         result="effect1_foregroundBlur_244_15"
         id="feGaussianBlur7" />
    </filter>
    <clipPath
       id="clip0_244_15">
      <rect
         width="405"
         height="70"
         fill="#ffffff"
         transform="translate(83.5 463)"
         id="rect7" />
    </clipPath>
  </defs>
</svg>
