<?xml version="1.0" encoding="utf-8" standalone="no"?>
<!DOCTYPE svg PUBLIC "-//W3C//DTD SVG 1.1//EN"
  "http://www.w3.org/Graphics/SVG/1.1/DTD/svg11.dtd">
<svg xmlns:xlink="http://www.w3.org/1999/xlink" width="1008pt" height="432pt" viewBox="0 0 1008 432" xmlns="http://www.w3.org/2000/svg" version="1.1">
 <metadata>
  <rdf:RDF xmlns:dc="http://purl.org/dc/elements/1.1/" xmlns:cc="http://creativecommons.org/ns#" xmlns:rdf="http://www.w3.org/1999/02/22-rdf-syntax-ns#">
   <cc:Work>
    <dc:type rdf:resource="http://purl.org/dc/dcmitype/StillImage"/>
    <dc:date>2025-06-08T11:00:06.982650</dc:date>
    <dc:format>image/svg+xml</dc:format>
    <dc:creator>
     <cc:Agent>
      <dc:title>Matplotlib v3.10.3, https://matplotlib.org/</dc:title>
     </cc:Agent>
    </dc:creator>
   </cc:Work>
  </rdf:RDF>
 </metadata>
 <defs>
  <style type="text/css">*{stroke-linejoin: round; stroke-linecap: butt}</style>
 </defs>
 <g id="figure_1">
  <g id="patch_1">
   <path d="M 0 432 
L 1008 432 
L 1008 0 
L 0 0 
z
" style="fill: #ffffff"/>
  </g>
  <g id="axes_1">
   <g id="PatchCollection_1">
    <path d="M 55.636364 148.066116 
L 96.396694 148.066116 
" clip-path="url(#p9bbd4448de)" style="fill: none; stroke: #8b0000; stroke-width: 3"/>
    <path d="M 55.636364 283.933884 
L 96.396694 283.933884 
" clip-path="url(#p9bbd4448de)" style="fill: none; stroke: #8b0000; stroke-width: 3"/>
    <path d="M 96.396694 148.066116 
L 172.482645 148.066116 
L 224.112397 199.695868 
" clip-path="url(#p9bbd4448de)" style="fill: none; stroke: #8b0000; stroke-width: 3"/>
    <path d="M 240.416529 199.695868 
L 292.046281 148.066116 
L 368.132231 148.066116 
" clip-path="url(#p9bbd4448de)" style="fill: none; stroke: #8b0000; stroke-width: 3"/>
    <path d="M 96.396694 283.933884 
L 172.482645 283.933884 
L 224.112397 232.304132 
" clip-path="url(#p9bbd4448de)" style="fill: none; stroke: #8b0000; stroke-width: 3"/>
    <path d="M 240.416529 232.304132 
L 292.046281 283.933884 
L 368.132231 283.933884 
" clip-path="url(#p9bbd4448de)" style="fill: none; stroke: #8b0000; stroke-width: 3"/>
    <path d="M 164.330579 196.978512 
L 300.198347 196.978512 
L 300.198347 235.021488 
L 164.330579 235.021488 
z
" clip-path="url(#p9bbd4448de)" style="stroke: #000000"/>
    <path d="M 164.330579 196.978512 
L 300.198347 196.978512 
L 300.198347 207.847934 
L 164.330579 207.847934 
z
" clip-path="url(#p9bbd4448de)" style="fill: #d3d3d3; stroke: #000000"/>
    <path d="M 281.17686 216 
L 308.350413 216 
L 308.350413 243.173554 
L 281.17686 243.173554 
z
" clip-path="url(#p9bbd4448de)" style="fill: #d8bfd8; stroke: #000000"/>
    <path d="M 368.132231 148.066116 
L 504 148.066116 
" clip-path="url(#p9bbd4448de)" style="fill: none; stroke: #8b0000; stroke-width: 3"/>
    <path d="M 381.719008 188.826446 
L 406.175207 188.826446 
L 444.218182 107.305785 
L 419.761983 107.305785 
L 381.719008 188.826446 
L 406.175207 188.826446 
z
" clip-path="url(#p9bbd4448de)" style="fill: #808080; stroke: #000000"/>
    <path d="M 368.132231 283.933884 
L 504 283.933884 
" clip-path="url(#p9bbd4448de)" style="fill: none; stroke: #8b0000; stroke-width: 3"/>
    <path d="M 504 148.066116 
L 580.08595 148.066116 
L 631.715702 199.695868 
" clip-path="url(#p9bbd4448de)" style="fill: none; stroke: #8b0000; stroke-width: 3"/>
    <path d="M 648.019835 199.695868 
L 699.649587 148.066116 
L 775.735537 148.066116 
" clip-path="url(#p9bbd4448de)" style="fill: none; stroke: #8b0000; stroke-width: 3"/>
    <path d="M 504 283.933884 
L 580.08595 283.933884 
L 631.715702 232.304132 
" clip-path="url(#p9bbd4448de)" style="fill: none; stroke: #8b0000; stroke-width: 3"/>
    <path d="M 648.019835 232.304132 
L 699.649587 283.933884 
L 775.735537 283.933884 
" clip-path="url(#p9bbd4448de)" style="fill: none; stroke: #8b0000; stroke-width: 3"/>
    <path d="M 571.933884 196.978512 
L 707.801653 196.978512 
L 707.801653 235.021488 
L 571.933884 235.021488 
z
" clip-path="url(#p9bbd4448de)" style="stroke: #000000"/>
    <path d="M 571.933884 196.978512 
L 707.801653 196.978512 
L 707.801653 207.847934 
L 571.933884 207.847934 
z
" clip-path="url(#p9bbd4448de)" style="fill: #d3d3d3; stroke: #000000"/>
    <path d="M 688.780165 216 
L 715.953719 216 
L 715.953719 243.173554 
L 688.780165 243.173554 
z
" clip-path="url(#p9bbd4448de)" style="fill: #d8bfd8; stroke: #000000"/>
    <path d="M 775.735537 283.933884 
L 911.603306 283.933884 
" clip-path="url(#p9bbd4448de)" style="fill: none; stroke: #8b0000; stroke-width: 3"/>
    <path d="M 789.322314 324.694215 
L 813.778512 324.694215 
L 851.821488 243.173554 
L 827.365289 243.173554 
L 789.322314 324.694215 
L 813.778512 324.694215 
z
" clip-path="url(#p9bbd4448de)" style="fill: #808080; stroke: #000000"/>
    <path d="M 775.735537 148.066116 
L 911.603306 148.066116 
" clip-path="url(#p9bbd4448de)" style="fill: none; stroke: #8b0000; stroke-width: 3"/>
    <path d="M 911.603306 148.066116 
L 952.363636 148.066116 
" clip-path="url(#p9bbd4448de)" style="fill: none; stroke: #8b0000; stroke-width: 3"/>
    <path d="M 911.603306 283.933884 
L 952.363636 283.933884 
" clip-path="url(#p9bbd4448de)" style="fill: none; stroke: #8b0000; stroke-width: 3"/>
   </g>
   <g id="text_1">
    <!-- Rx -->
    <g transform="translate(283.183168 235.021488) scale(0.18 -0.18)">
     <defs>
      <path id="DejaVuSans-52" d="M 2841 2188 
Q 3044 2119 3236 1894 
Q 3428 1669 3622 1275 
L 4263 0 
L 3584 0 
L 2988 1197 
Q 2756 1666 2539 1819 
Q 2322 1972 1947 1972 
L 1259 1972 
L 1259 0 
L 628 0 
L 628 4666 
L 2053 4666 
Q 2853 4666 3247 4331 
Q 3641 3997 3641 3322 
Q 3641 2881 3436 2590 
Q 3231 2300 2841 2188 
z
M 1259 4147 
L 1259 2491 
L 2053 2491 
Q 2509 2491 2742 2702 
Q 2975 2913 2975 3322 
Q 2975 3731 2742 3939 
Q 2509 4147 2053 4147 
L 1259 4147 
z
" transform="scale(0.015625)"/>
      <path id="DejaVuSans-78" d="M 3513 3500 
L 2247 1797 
L 3578 0 
L 2900 0 
L 1881 1375 
L 863 0 
L 184 0 
L 1544 1831 
L 300 3500 
L 978 3500 
L 1906 2253 
L 2834 3500 
L 3513 3500 
z
" transform="scale(0.015625)"/>
     </defs>
     <use xlink:href="#DejaVuSans-52"/>
     <use xlink:href="#DejaVuSans-78" transform="translate(69.482422 0)"/>
    </g>
   </g>
   <g id="text_2">
    <!-- Φ=φ_a -->
    <g transform="translate(427.91405 183.391736) scale(0.21 -0.21)">
     <defs>
      <path id="DejaVuSans-3a6" d="M 2206 3644 
Q 1738 3578 1431 3306 
Q 1025 2947 1025 2328 
Q 1025 1713 1431 1353 
Q 1738 1081 2206 1016 
L 2206 3644 
z
M 2838 1016 
Q 3306 1081 3613 1353 
Q 4013 1713 4013 2328 
Q 4013 2947 3613 3306 
Q 3306 3578 2838 3644 
L 2838 1016 
z
M 2206 494 
Q 1444 563 950 981 
Q 359 1481 359 2328 
Q 359 3175 950 3678 
Q 1441 4100 2206 4169 
L 2206 4666 
L 2838 4666 
L 2838 4169 
Q 3600 4097 4091 3678 
Q 4678 3175 4678 2328 
Q 4678 1484 4091 981 
Q 3600 563 2838 491 
L 2838 0 
L 2206 0 
L 2206 494 
z
" transform="scale(0.015625)"/>
      <path id="DejaVuSans-3d" d="M 678 2906 
L 4684 2906 
L 4684 2381 
L 678 2381 
L 678 2906 
z
M 678 1631 
L 4684 1631 
L 4684 1100 
L 678 1100 
L 678 1631 
z
" transform="scale(0.015625)"/>
      <path id="DejaVuSans-3c6" d="M 2591 3034 
Q 2388 3034 2388 2581 
L 2388 438 
Q 2684 438 2981 763 
Q 3247 1053 3247 1750 
Q 3247 2400 2978 2750 
Q 2759 3034 2591 3034 
z
M 2591 3525 
Q 3028 3525 3425 3113 
Q 3853 2672 3853 1750 
Q 3853 903 3425 400 
Q 3022 -75 2388 -75 
L 2388 -1331 
L 1816 -1331 
L 1816 -78 
Q 1194 -78 775 400 
Q 350 888 350 1747 
Q 350 2641 775 3097 
Q 1094 3438 1613 3525 
L 1613 3016 
Q 1406 2944 1225 2700 
Q 956 2341 956 1747 
Q 956 1116 1225 756 
Q 1466 434 1816 434 
L 1816 2581 
Q 1816 3525 2591 3525 
z
" transform="scale(0.015625)"/>
      <path id="DejaVuSans-5f" d="M 3263 -1063 
L 3263 -1509 
L -63 -1509 
L -63 -1063 
L 3263 -1063 
z
" transform="scale(0.015625)"/>
      <path id="DejaVuSans-61" d="M 2194 1759 
Q 1497 1759 1228 1600 
Q 959 1441 959 1056 
Q 959 750 1161 570 
Q 1363 391 1709 391 
Q 2188 391 2477 730 
Q 2766 1069 2766 1631 
L 2766 1759 
L 2194 1759 
z
M 3341 1997 
L 3341 0 
L 2766 0 
L 2766 531 
Q 2569 213 2275 61 
Q 1981 -91 1556 -91 
Q 1019 -91 701 211 
Q 384 513 384 1019 
Q 384 1609 779 1909 
Q 1175 2209 1959 2209 
L 2766 2209 
L 2766 2266 
Q 2766 2663 2505 2880 
Q 2244 3097 1772 3097 
Q 1472 3097 1187 3025 
Q 903 2953 641 2809 
L 641 3341 
Q 956 3463 1253 3523 
Q 1550 3584 1831 3584 
Q 2591 3584 2966 3190 
Q 3341 2797 3341 1997 
z
" transform="scale(0.015625)"/>
     </defs>
     <use xlink:href="#DejaVuSans-3a6"/>
     <use xlink:href="#DejaVuSans-3d" transform="translate(78.710938 0)"/>
     <use xlink:href="#DejaVuSans-3c6" transform="translate(162.5 0)"/>
     <use xlink:href="#DejaVuSans-5f" transform="translate(228.466797 0)"/>
     <use xlink:href="#DejaVuSans-61" transform="translate(278.466797 0)"/>
    </g>
   </g>
   <g id="text_3">
    <!-- Rx -->
    <g transform="translate(690.786473 235.021488) scale(0.18 -0.18)">
     <use xlink:href="#DejaVuSans-52"/>
     <use xlink:href="#DejaVuSans-78" transform="translate(69.482422 0)"/>
    </g>
   </g>
   <g id="text_4">
    <!-- Φ=φ_b -->
    <g transform="translate(835.517355 319.259504) scale(0.21 -0.21)">
     <defs>
      <path id="DejaVuSans-62" d="M 3116 1747 
Q 3116 2381 2855 2742 
Q 2594 3103 2138 3103 
Q 1681 3103 1420 2742 
Q 1159 2381 1159 1747 
Q 1159 1113 1420 752 
Q 1681 391 2138 391 
Q 2594 391 2855 752 
Q 3116 1113 3116 1747 
z
M 1159 2969 
Q 1341 3281 1617 3432 
Q 1894 3584 2278 3584 
Q 2916 3584 3314 3078 
Q 3713 2572 3713 1747 
Q 3713 922 3314 415 
Q 2916 -91 2278 -91 
Q 1894 -91 1617 61 
Q 1341 213 1159 525 
L 1159 0 
L 581 0 
L 581 4863 
L 1159 4863 
L 1159 2969 
z
" transform="scale(0.015625)"/>
     </defs>
     <use xlink:href="#DejaVuSans-3a6"/>
     <use xlink:href="#DejaVuSans-3d" transform="translate(78.710938 0)"/>
     <use xlink:href="#DejaVuSans-3c6" transform="translate(162.5 0)"/>
     <use xlink:href="#DejaVuSans-5f" transform="translate(228.466797 0)"/>
     <use xlink:href="#DejaVuSans-62" transform="translate(278.466797 0)"/>
    </g>
   </g>
   <g id="text_5">
    <!-- 0 -->
    <g transform="translate(968.08469 156.218182) scale(0.18 -0.18)">
     <defs>
      <path id="DejaVuSans-30" d="M 2034 4250 
Q 1547 4250 1301 3770 
Q 1056 3291 1056 2328 
Q 1056 1369 1301 889 
Q 1547 409 2034 409 
Q 2525 409 2770 889 
Q 3016 1369 3016 2328 
Q 3016 3291 2770 3770 
Q 2525 4250 2034 4250 
z
M 2034 4750 
Q 2819 4750 3233 4129 
Q 3647 3509 3647 2328 
Q 3647 1150 3233 529 
Q 2819 -91 2034 -91 
Q 1250 -91 836 529 
Q 422 1150 422 2328 
Q 422 3509 836 4129 
Q 1250 4750 2034 4750 
z
" transform="scale(0.015625)"/>
     </defs>
     <use xlink:href="#DejaVuSans-30"/>
    </g>
   </g>
   <g id="text_6">
    <!-- 1 -->
    <g transform="translate(968.08469 292.08595) scale(0.18 -0.18)">
     <defs>
      <path id="DejaVuSans-31" d="M 794 531 
L 1825 531 
L 1825 4091 
L 703 3866 
L 703 4441 
L 1819 4666 
L 2450 4666 
L 2450 531 
L 3481 531 
L 3481 0 
L 794 0 
L 794 531 
z
" transform="scale(0.015625)"/>
     </defs>
     <use xlink:href="#DejaVuSans-31"/>
    </g>
   </g>
   <g id="text_7">
    <!-- 0 -->
    <g transform="translate(28.46281 156.218182) scale(0.18 -0.18)">
     <use xlink:href="#DejaVuSans-30"/>
    </g>
   </g>
   <g id="text_8">
    <!-- 1 -->
    <g transform="translate(28.46281 292.08595) scale(0.18 -0.18)">
     <use xlink:href="#DejaVuSans-31"/>
    </g>
   </g>
  </g>
 </g>
 <defs>
  <clipPath id="p9bbd4448de">
   <rect x="10.8" y="10.8" width="986.4" height="410.4"/>
  </clipPath>
 </defs>
</svg>
