<?xml version="1.0" encoding="UTF-8"?>
<svg xmlns="http://www.w3.org/2000/svg" xmlns:xlink="http://www.w3.org/1999/xlink"
     width="1280.625" height="531.25" viewBox="-29.5 0 1024.5 425.0">
<defs>
</defs>
<path d="M10,25.0 L25,25.0" stroke-width="3" stroke="darkred" stroke-linejoin="miter" fill="none" />
<path d="M10,75.0 L25,75.0" stroke-width="3" stroke="darkred" stroke-linejoin="miter" fill="none" />
<path d="M10,125.0 L25,125.0" stroke-width="3" stroke="darkred" stroke-linejoin="miter" fill="none" />
<path d="M10,175.0 L25,175.0" stroke-width="3" stroke="darkred" stroke-linejoin="miter" fill="none" />
<path d="M10,225.0 L25,225.0" stroke-width="3" stroke="darkred" stroke-linejoin="miter" fill="none" />
<path d="M10,275.0 L25,275.0" stroke-width="3" stroke="darkred" stroke-linejoin="miter" fill="none" />
<path d="M28,225 L72,325" stroke="white" stroke-width="6" fill="none" />
<path d="M25,225 L28,225 L72,325 L75,325" stroke="darkred" stroke-width="3" fill="none" />
<path d="M28,275 L72,375" stroke="white" stroke-width="6" fill="none" />
<path d="M25,275 L28,275 L72,375 L75,375" stroke="darkred" stroke-width="3" fill="none" />
<path d="M77,2 L573,2 L573,298 L77,298 Z" stroke="black" fill="lightblue" stroke-dasharray="1,2" stroke-linejoin="miter" />
<text x="79" y="305" font-size="8" text-anchor="start">POSTPROCESSED CNOT</text>
<path d="M25,25.0 L75,25.0" stroke="darkred" stroke-width="3" fill="none" />
<path d="M25,75.0 L75,75.0" stroke="darkred" stroke-width="3" fill="none" />
<path d="M25,125.0 L75,125.0" stroke="darkred" stroke-width="3" fill="none" />
<path d="M25,175.0 L75,175.0" stroke="darkred" stroke-width="3" fill="none" />
<path d="M78,25 L122,25" stroke="white" stroke-width="6" fill="none" />
<path d="M75,25 L78,25 L122,25 L125,25" stroke="darkred" stroke-width="3" fill="none" />
<path d="M78,75 L122,125" stroke="white" stroke-width="6" fill="none" />
<path d="M75,75 L78,75 L122,125 L125,125" stroke="darkred" stroke-width="3" fill="none" />
<path d="M78,125 L122,175" stroke="white" stroke-width="6" fill="none" />
<path d="M75,125 L78,125 L122,175 L125,175" stroke="darkred" stroke-width="3" fill="none" />
<path d="M78,175 L122,225" stroke="white" stroke-width="6" fill="none" />
<path d="M75,175 L78,175 L122,225 L125,225" stroke="darkred" stroke-width="3" fill="none" />
<path d="M125,175 L153,175 L172,194" stroke="darkred" stroke-width="3" fill="none" />
<path d="M178,194 L197,175 L225,175" stroke="darkred" stroke-width="3" fill="none" />
<path d="M125,225 L153,225 L172,206" stroke="darkred" stroke-width="3" fill="none" />
<path d="M178,206 L197,225 L225,225" stroke="darkred" stroke-width="3" fill="none" />
<path d="M150,193 L200,193 L200,207 L150,207 Z" stroke="black" fill="black" stroke-linejoin="miter" />
<text x="175" y="235" font-size="7" text-anchor="middle"></text>
<text x="175" y="176" font-size="7" text-anchor="middle"></text>
<path d="M150,193 L200,193 L200,197 L150,197 Z" stroke="black" fill="lightgray" stroke-linejoin="miter" />
<path d="M193,200 L203,200 L203,210 L193,210 Z" stroke="black" fill="aquamarine" stroke-linejoin="miter" />
<text x="198" y="207" font-size="6" text-anchor="middle">H</text>
<path d="M125,125.0 L225,125.0" stroke="darkred" stroke-width="3" fill="none" />
<path d="M228,125 L272,175" stroke="white" stroke-width="6" fill="none" />
<path d="M225,125 L228,125 L272,175 L275,175" stroke="darkred" stroke-width="3" fill="none" />
<path d="M228,175 L272,125" stroke="white" stroke-width="6" fill="none" />
<path d="M225,175 L228,175 L272,125 L275,125" stroke="darkred" stroke-width="3" fill="none" />
<path d="M125,25.0 L275,25.0" stroke="darkred" stroke-width="3" fill="none" />
<path d="M225,225.0 L275,225.0" stroke="darkred" stroke-width="3" fill="none" />
<path d="M275,25 L303,25 L322,44" stroke="darkred" stroke-width="3" fill="none" />
<path d="M328,44 L347,25 L375,25" stroke="darkred" stroke-width="3" fill="none" />
<path d="M275,75 L303,75 L322,56" stroke="darkred" stroke-width="3" fill="none" />
<path d="M328,56 L347,75 L375,75" stroke="darkred" stroke-width="3" fill="none" />
<path d="M300,43 L350,43 L350,57 L300,57 Z" stroke="black" fill="black" stroke-linejoin="miter" />
<text x="325" y="80" font-size="7" text-anchor="middle"></text>
<text x="325" y="26" font-size="7" text-anchor="middle">Θ=1.910633</text>
<path d="M300,43 L350,43 L350,47 L300,47 Z" stroke="black" fill="lightgray" stroke-linejoin="miter" />
<path d="M343,50 L353,50 L353,60 L343,60 Z" stroke="black" fill="aquamarine" stroke-linejoin="miter" />
<text x="348" y="57" font-size="6" text-anchor="middle">H</text>
<path d="M275,125 L303,125 L322,144" stroke="darkred" stroke-width="3" fill="none" />
<path d="M328,144 L347,125 L375,125" stroke="darkred" stroke-width="3" fill="none" />
<path d="M275,175 L303,175 L322,156" stroke="darkred" stroke-width="3" fill="none" />
<path d="M328,156 L347,175 L375,175" stroke="darkred" stroke-width="3" fill="none" />
<path d="M300,143 L350,143 L350,157 L300,157 Z" stroke="black" fill="black" stroke-linejoin="miter" />
<text x="325" y="180" font-size="7" text-anchor="middle"></text>
<text x="325" y="126" font-size="7" text-anchor="middle">Θ=1.910633</text>
<path d="M300,143 L350,143 L350,147 L300,147 Z" stroke="black" fill="lightgray" stroke-linejoin="miter" />
<path d="M343,150 L353,150 L353,160 L343,160 Z" stroke="black" fill="aquamarine" stroke-linejoin="miter" />
<text x="348" y="157" font-size="6" text-anchor="middle">H</text>
<path d="M275,225 L303,225 L322,244" stroke="darkred" stroke-width="3" fill="none" />
<path d="M328,244 L347,225 L375,225" stroke="darkred" stroke-width="3" fill="none" />
<path d="M275,275 L303,275 L322,256" stroke="darkred" stroke-width="3" fill="none" />
<path d="M328,256 L347,275 L375,275" stroke="darkred" stroke-width="3" fill="none" />
<path d="M300,243 L350,243 L350,257 L300,257 Z" stroke="black" fill="black" stroke-linejoin="miter" />
<text x="325" y="280" font-size="7" text-anchor="middle"></text>
<text x="325" y="226" font-size="7" text-anchor="middle">Θ=1.910633</text>
<path d="M300,243 L350,243 L350,247 L300,247 Z" stroke="black" fill="lightgray" stroke-linejoin="miter" />
<path d="M343,250 L353,250 L353,260 L343,260 Z" stroke="black" fill="aquamarine" stroke-linejoin="miter" />
<text x="348" y="257" font-size="6" text-anchor="middle">H</text>
<path d="M378,125 L422,175" stroke="white" stroke-width="6" fill="none" />
<path d="M375,125 L378,125 L422,175 L425,175" stroke="darkred" stroke-width="3" fill="none" />
<path d="M378,175 L422,125" stroke="white" stroke-width="6" fill="none" />
<path d="M375,175 L378,175 L422,125 L425,125" stroke="darkred" stroke-width="3" fill="none" />
<path d="M375,225.0 L425,225.0" stroke="darkred" stroke-width="3" fill="none" />
<path d="M425,175 L453,175 L472,194" stroke="darkred" stroke-width="3" fill="none" />
<path d="M478,194 L497,175 L525,175" stroke="darkred" stroke-width="3" fill="none" />
<path d="M425,225 L453,225 L472,206" stroke="darkred" stroke-width="3" fill="none" />
<path d="M478,206 L497,225 L525,225" stroke="darkred" stroke-width="3" fill="none" />
<path d="M450,193 L500,193 L500,207 L450,207 Z" stroke="black" fill="black" stroke-linejoin="miter" />
<text x="475" y="235" font-size="7" text-anchor="middle"></text>
<text x="475" y="176" font-size="7" text-anchor="middle"></text>
<path d="M450,193 L500,193 L500,197 L450,197 Z" stroke="black" fill="lightgray" stroke-linejoin="miter" />
<path d="M493,200 L503,200 L503,210 L493,210 Z" stroke="black" fill="aquamarine" stroke-linejoin="miter" />
<text x="498" y="207" font-size="6" text-anchor="middle">H</text>
<path d="M425,125.0 L525,125.0" stroke="darkred" stroke-width="3" fill="none" />
<path d="M528,125 L572,75" stroke="white" stroke-width="6" fill="none" />
<path d="M525,125 L528,125 L572,75 L575,75" stroke="darkred" stroke-width="3" fill="none" />
<path d="M528,175 L572,125" stroke="white" stroke-width="6" fill="none" />
<path d="M525,175 L528,175 L572,125 L575,125" stroke="darkred" stroke-width="3" fill="none" />
<path d="M528,225 L572,175" stroke="white" stroke-width="6" fill="none" />
<path d="M525,225 L528,225 L572,175 L575,175" stroke="darkred" stroke-width="3" fill="none" />
<path d="M375,25.0 L575,25.0" stroke="darkred" stroke-width="3" fill="none" />
<path d="M75,325.0 L575,325.0" stroke="darkred" stroke-width="3" fill="none" />
<path d="M75,375.0 L575,375.0" stroke="darkred" stroke-width="3" fill="none" />
<path d="M578,325 L622,225" stroke="white" stroke-width="6" fill="none" />
<path d="M575,325 L578,325 L622,225 L625,225" stroke="darkred" stroke-width="3" fill="none" />
<path d="M578,375 L622,275" stroke="white" stroke-width="6" fill="none" />
<path d="M575,375 L578,375 L622,275 L625,275" stroke="darkred" stroke-width="3" fill="none" />
<path d="M575,25 L603,25 L622,44" stroke="darkred" stroke-width="3" fill="none" />
<path d="M628,44 L647,25 L675,25" stroke="darkred" stroke-width="3" fill="none" />
<path d="M575,75 L603,75 L622,56" stroke="darkred" stroke-width="3" fill="none" />
<path d="M628,56 L647,75 L675,75" stroke="darkred" stroke-width="3" fill="none" />
<path d="M600,43 L650,43 L650,57 L600,57 Z" stroke="black" fill="black" stroke-linejoin="miter" />
<text x="625" y="85" font-size="7" text-anchor="middle"></text>
<text x="625" y="26" font-size="7" text-anchor="middle"></text>
<path d="M600,43 L650,43 L650,47 L600,47 Z" stroke="black" fill="lightgray" stroke-linejoin="miter" />
<path d="M643,50 L653,50 L653,60 L643,60 Z" stroke="black" fill="aquamarine" stroke-linejoin="miter" />
<text x="648" y="57" font-size="6" text-anchor="middle">H</text>
<path d="M575,125.0 L675,125.0" stroke="darkred" stroke-width="3" fill="none" />
<path d="M575,175.0 L675,175.0" stroke="darkred" stroke-width="3" fill="none" />
<path d="M625,225.0 L675,225.0" stroke="darkred" stroke-width="3" fill="none" />
<path d="M625,275.0 L675,275.0" stroke="darkred" stroke-width="3" fill="none" />
<path d="M675,25 L725,25" stroke-width="3" stroke="darkred" stroke-linejoin="miter" fill="none" />
<path d="M675,75 L725,75" stroke-width="3" stroke="darkred" stroke-linejoin="miter" fill="none" />
<path d="M699,10 L701,10 L701,90 L699,90 Z" stroke="dimgrey" fill="dimgrey" stroke-linejoin="miter" />
<path d="M675,125 L700,125" stroke-width="3" stroke="darkred" stroke-linejoin="miter" fill="none" />
<path d="M700,125 L725,125" stroke-width="3" stroke="orange" stroke-linejoin="miter" fill="none" />
<path d="M695,135 L687,135 L687,115 L695,115 C695,115,705,115,705,125 C705,135,695,135,695,135 L695,135" stroke-width="1" stroke="black" stroke-linejoin="miter" fill="lightgray" />
<text x="687" y="112" font-size="5" text-anchor="start" font-style="italic">PNR</text>
<path d="M675,175 L700,175" stroke-width="3" stroke="darkred" stroke-linejoin="miter" fill="none" />
<path d="M700,175 L725,175" stroke-width="3" stroke="orange" stroke-linejoin="miter" fill="none" />
<path d="M695,185 L687,185 L687,165 L695,165 C695,165,705,165,705,175 C705,185,695,185,695,185 L695,185" stroke-width="1" stroke="black" stroke-linejoin="miter" fill="lightgray" />
<text x="687" y="162" font-size="5" text-anchor="start" font-style="italic">PNR</text>
<path d="M675,225 L725,225" stroke-width="3" stroke="darkred" stroke-linejoin="miter" fill="none" />
<path d="M675,275 L725,275" stroke-width="3" stroke="darkred" stroke-linejoin="miter" fill="none" />
<path d="M699,210 L701,210 L701,290 L699,290 Z" stroke="dimgrey" fill="dimgrey" stroke-linejoin="miter" />
<path d="M725,125 L825,125" stroke-width="3" stroke="orange" stroke-linejoin="miter" fill="none" />
<path d="M725,175 L825,175" stroke-width="3" stroke="orange" stroke-linejoin="miter" fill="none" />
<path d="M775,190.0 L775,205.0" stroke="white" stroke-width="5" fill="none" />
<path d="M775,190.0 L775,205.0" stroke="orange" stroke-width="3" fill="none" stroke-dasharray="4,4" />
<path d="M775,198.0 L772,195.0" stroke="orange" stroke-width="3" fill="none" />
<path d="M775,198.0 L778,195.0" stroke="orange" stroke-width="3" fill="none" />
<path d="M730,110 L820,110 L820,190 L730,190 Z" stroke="black" fill="lightgreen" stroke-linejoin="miter" />
<text x="775" y="155.0" font-size="10" text-anchor="middle">FFC</text>
<path d="M725,225 L825,225" stroke-width="3" stroke="darkred" stroke-linejoin="miter" fill="none" />
<path d="M725,275 L825,275" stroke-width="3" stroke="darkred" stroke-linejoin="miter" fill="none" />
<path d="M730,205 L820,205 L820,295 L730,295 Z" stroke="black" fill="lightyellow" stroke-linejoin="miter" />
<text x="775" y="250" font-size="10" text-anchor="middle">U(FFC)</text>
<path d="M725,25.0 L825,25.0" stroke="darkred" stroke-width="3" fill="none" />
<path d="M725,75.0 L825,75.0" stroke="darkred" stroke-width="3" fill="none" />
<path d="M825,25 L850,25" stroke-width="3" stroke="darkred" stroke-linejoin="miter" fill="none" />
<path d="M850,25 L875,25" stroke-width="3" stroke="orange" stroke-linejoin="miter" fill="none" />
<path d="M845,35 L837,35 L837,15 L845,15 C845,15,855,15,855,25 C855,35,845,35,845,35 L845,35" stroke-width="1" stroke="black" stroke-linejoin="miter" fill="lightgray" />
<text x="837" y="12" font-size="5" text-anchor="start" font-style="italic">PNR</text>
<path d="M825,75 L850,75" stroke-width="3" stroke="darkred" stroke-linejoin="miter" fill="none" />
<path d="M850,75 L875,75" stroke-width="3" stroke="orange" stroke-linejoin="miter" fill="none" />
<path d="M845,85 L837,85 L837,65 L845,65 C845,65,855,65,855,75 C855,85,845,85,845,85 L845,85" stroke-width="1" stroke="black" stroke-linejoin="miter" fill="lightgray" />
<text x="837" y="62" font-size="5" text-anchor="start" font-style="italic">PNR</text>
<path d="M825,125 L875,125" stroke-width="3" stroke="orange" stroke-linejoin="miter" fill="none" />
<path d="M825,175 L875,175" stroke-width="3" stroke="orange" stroke-linejoin="miter" fill="none" />
<path d="M825,225 L875,225" stroke-width="3" stroke="darkred" stroke-linejoin="miter" fill="none" />
<path d="M825,275 L875,275" stroke-width="3" stroke="darkred" stroke-linejoin="miter" fill="none" />
<path d="M849,110 L851,110 L851,290 L849,290 Z" stroke="dimgrey" fill="dimgrey" stroke-linejoin="miter" />
<path d="M875,25 L925,25" stroke-width="3" stroke="orange" stroke-linejoin="miter" fill="none" />
<path d="M875,75 L925,75" stroke-width="3" stroke="orange" stroke-linejoin="miter" fill="none" />
<path d="M900,90.0 L900,255.0" stroke="white" stroke-width="5" fill="none" />
<path d="M900,90.0 L900,255.0" stroke="orange" stroke-width="3" fill="none" stroke-dasharray="4,4" />
<path d="M900,98.0 L897,95.0" stroke="orange" stroke-width="3" fill="none" />
<path d="M900,98.0 L903,95.0" stroke="orange" stroke-width="3" fill="none" />
<path d="M880,10 L920,10 L920,90 L880,90 Z" stroke="black" fill="lightgreen" stroke-linejoin="miter" />
<text x="900" y="55.0" font-size="10" text-anchor="middle">FFC</text>
<path d="M875,275 L925,275" stroke="darkred" stroke-width="3" fill="none" />
<path d="M880,290 L889,290 L903,260 L894,260 L880,290 L889,290 Z" stroke="black" fill="gray" stroke-linejoin="miter" />
<text x="897" y="288" font-size="7" text-anchor="start">Φ=phi</text>
<path d="M875,125.0 L925,125.0" stroke="orange" stroke-width="3" fill="none" />
<path d="M875,175.0 L925,175.0" stroke="orange" stroke-width="3" fill="none" />
<path d="M875,225.0 L925,225.0" stroke="darkred" stroke-width="3" fill="none" />
<path d="M925,25.0 L940,25.0" stroke-width="3" stroke="orange" stroke-linejoin="miter" fill="none" />
<path d="M925,75.0 L940,75.0" stroke-width="3" stroke="orange" stroke-linejoin="miter" fill="none" />
<path d="M925,125.0 L940,125.0" stroke-width="3" stroke="orange" stroke-linejoin="miter" fill="none" />
<path d="M925,175.0 L940,175.0" stroke-width="3" stroke="orange" stroke-linejoin="miter" fill="none" />
<path d="M925,225.0 L940,225.0" stroke-width="3" stroke="darkred" stroke-linejoin="miter" fill="none" />
<path d="M925,275.0 L940,275.0" stroke-width="3" stroke="darkred" stroke-linejoin="miter" fill="none" />
<path d="M257,75 C257,75,257,65,267,65 L275,65 L275,85 L267,85 C257,85,257,75,257,75 L257,75" stroke-width="1" stroke="black" stroke-linejoin="miter" fill="white" />
<text x="263" y="91" font-size="6" text-anchor="middle" font-style="italic">[herald0]</text>
<text x="267" y="78" font-size="7" text-anchor="middle">0</text>
<path d="M257,275 C257,275,257,265,267,265 L275,265 L275,285 L267,285 C257,285,257,275,257,275 L257,275" stroke-width="1" stroke="black" stroke-linejoin="miter" fill="white" />
<text x="263" y="291" font-size="6" text-anchor="middle" font-style="italic">[herald1]</text>
<text x="267" y="278" font-size="7" text-anchor="middle">0</text>
<path d="M940,15 L952,15 L952,85 L940,85 Z" stroke="black" fill="lightgray" stroke-linejoin="miter" />
<text x="952" y="91" font-size="6" text-anchor="end" font-style="italic">[ctrl]</text>
<path d="M940,115 L952,115 L952,185 L940,185 Z" stroke="black" fill="lightgray" stroke-linejoin="miter" />
<text x="952" y="191" font-size="6" text-anchor="end" font-style="italic">[data]</text>
<path d="M383,85 L375,85 L375,65 L383,65 C383,65,393,65,393,75 C393,85,383,85,383,85 L383,85" stroke-width="1" stroke="black" stroke-linejoin="miter" fill="white" />
<text x="388" y="61" font-size="6" text-anchor="middle" font-style="italic">[herald0]</text>
<text x="383" y="78" font-size="7" text-anchor="middle">0</text>
<path d="M383,285 L375,285 L375,265 L383,265 C383,265,393,265,393,275 C393,285,383,285,383,285 L383,285" stroke-width="1" stroke="black" stroke-linejoin="miter" fill="white" />
<text x="388" y="261" font-size="6" text-anchor="middle" font-style="italic">[herald1]</text>
<text x="383" y="278" font-size="7" text-anchor="middle">0</text>
<text x="950" y="28.0" font-size="9" text-anchor="end">0</text>
<text x="950" y="78.0" font-size="9" text-anchor="end">1</text>
<text x="950" y="128.0" font-size="9" text-anchor="end">2</text>
<text x="950" y="178.0" font-size="9" text-anchor="end">3</text>
<text x="950" y="228.0" font-size="9" text-anchor="end">4</text>
<text x="950" y="278.0" font-size="9" text-anchor="end">5</text>
<text x="0" y="28.0" font-size="9" text-anchor="start">0</text>
<text x="0" y="78.0" font-size="9" text-anchor="start">1</text>
<text x="0" y="128.0" font-size="9" text-anchor="start">2</text>
<text x="0" y="178.0" font-size="9" text-anchor="start">3</text>
<text x="0" y="228.0" font-size="9" text-anchor="start">4</text>
<text x="0" y="278.0" font-size="9" text-anchor="start">5</text>
</svg>